<svg fill="#000000" height="800px" width="800px" version="1.1" id="Layer_1"
  xmlns="http://www.w3.org/2000/svg" xmlns:xlink="http://www.w3.org/1999/xlink"
  viewBox="0 0 512 512" xml:space="preserve">
<g>
	<g>
		<path d="M474.583,372.342l-22.171-12.8l23.537-10.054c4.333-1.85,6.35-6.863,4.5-11.196c-1.85-4.346-6.908-6.342-11.2-4.496
			l-35.311,15.08l-35.914-20.734l59.183-25.283c4.333-1.85,6.35-6.862,4.5-11.196c-1.858-4.35-6.917-6.346-11.2-4.496
			l-70.956,30.309l-37.017-21.373l23.29-7.524c4.483-1.45,6.942-6.258,5.492-10.746c-1.442-4.483-6.225-6.937-10.742-5.496
			l-37.963,12.264L273.073,256l49.077-28.334l31.95,18.638c1.35,0.788,2.833,1.162,4.292,1.162c2.933,0,5.792-1.517,7.375-4.233
			c2.375-4.071,1-9.296-3.067-11.671l-23.527-13.725l40.379-23.313l70.956,30.309c1.092,0.467,2.225,0.692,3.35,0.692
			c3.308,0,6.467-1.946,7.85-5.188c1.85-4.333-0.167-9.346-4.5-11.196l-59.183-25.283l35.914-20.734l35.31,15.08
			c1.092,0.471,2.225,0.692,3.35,0.692c3.308,0,6.467-1.946,7.85-5.188c1.85-4.333-0.167-9.346-4.5-11.196l-23.538-10.054
			l22.171-12.8c4.083-2.358,5.483-7.575,3.125-11.658c-2.367-4.091-7.592-5.479-11.658-3.125l-22.173,12.801l3.065-25.414
			c0.559-4.679-2.775-8.929-7.45-9.492c-4.725-0.579-8.933,2.771-9.5,7.45l-4.598,38.127l-39.961,23.071l8.633-71.652
			c0.558-4.679-2.775-8.929-7.458-9.492c-4.625-0.538-8.925,2.771-9.492,7.45L366.95,182.09l-29.719,17.159l3.91-18.262
			c0.992-4.608-1.942-9.146-6.55-10.133c-4.642-0.996-9.15,1.954-10.133,6.559l-6.648,33.334l-52.288,30.474v-49.225l30.221-23.037
			c3.775-2.825,4.296-8.175,1.463-11.946c-2.833-3.767-7.804-4.55-11.571-1.704l-20.112,15.359v-38.405l64.354-48.637
			c3.775-2.825,4.296-8.175,1.463-11.946c-2.825-3.771-7.804-4.546-11.571-1.704l-54.246,40.959V55.463l30.221-23.037
			c3.775-2.825,4.296-8.175,1.463-11.946c-2.833-3.763-7.804-4.542-11.571-1.704l-20.112,15.359V8.533
			c0-4.712-3.817-8.533-8.533-8.533c-4.717,0-8.533,3.821-8.533,8.533v25.601l-20.979-15.359c-3.767-2.829-9.363-2.054-12.188,1.704
			c-2.833,3.771-1.696,9.121,2.079,11.946l31.088,23.037v55.472l-55.113-40.959c-3.758-2.833-9.363-2.058-12.188,1.704
			c-2.833,3.771-1.696,9.121,2.079,11.946l65.221,48.637v38.405l-20.979-15.359c-3.767-2.833-9.363-2.058-12.188,1.704
			c-2.833,3.771-1.696,9.121,2.079,11.946l31.088,23.037v49.22l-43.54-24.852l-8.594-38.951c-0.992-4.613-5.608-7.579-10.258-6.559
			c-4.608,0.988-7.602,5.525-6.61,10.133l5.081,23.877l-41.252-23.807l-9.533-79.066c-0.567-4.679-4.863-7.975-9.496-7.45
			c-4.683,0.562-8.019,4.812-7.46,9.492l7.994,66.353l-38.181-22.044l-4.598-38.122c-0.567-4.679-4.792-8.017-9.5-7.45
			c-4.675,0.562-8.008,4.812-7.45,9.492l3.065,25.409l-22.165-12.797c-4.075-2.354-9.3-0.967-11.658,3.125
			c-2.358,4.083-0.958,9.3,3.125,11.658l22.167,12.798L36.05,162.513c-4.333,1.85-6.35,6.863-4.5,11.196
			c1.383,3.242,4.542,5.188,7.85,5.188c1.125,0,2.258-0.225,3.35-0.692l35.315-15.081l39.675,22.905l-64.09,27.38
			c-4.333,1.85-6.35,6.862-4.5,11.196c1.383,3.242,4.542,5.188,7.85,5.188c1.125,0,2.258-0.225,3.35-0.692l75.865-32.405
			l40.906,23.617l-19.287,11.251c-4.067,2.375-5.442,7.6-3.067,11.671c1.583,2.717,4.442,4.233,7.375,4.233
			c1.458,0,2.942-0.375,4.292-1.162l27.708-16.164L238.935,256l-37.308,21.539c-0.713-0.518-1.514-0.932-2.385-1.213l-38.75-12.521
			c-4.508-1.433-9.292,1.013-10.742,5.496c-1.45,4.487,1.008,9.296,5.492,10.746l26.956,8.711l-42.354,24.453l-70.96-30.31
			c-4.3-1.842-9.342,0.154-11.2,4.496c-1.85,4.333,0.167,9.346,4.5,11.196l59.185,25.284l-43.304,25.002L42.75,333.796
			c-4.3-1.854-9.35,0.15-11.2,4.496c-1.85,4.333,0.167,9.346,4.5,11.196l23.542,10.056l-22.167,12.798
			C33.342,374.7,31.942,379.917,34.3,384c1.583,2.738,4.45,4.267,7.4,4.267c1.45,0,2.917-0.366,4.258-1.142l22.165-12.797
			l-3.065,25.409c-0.558,4.679,2.775,8.929,7.45,9.492c0.35,0.042,0.692,0.063,1.033,0.063c4.258,0,7.942-3.179,8.467-7.513
			l4.598-38.122l47.35-27.338l-8.631,71.648c-0.558,4.679,2.775,8.929,7.458,9.492c0.342,0.042,0.683,0.063,1.025,0.063
			c4.258,0,7.942-3.179,8.467-7.512l10.165-84.361l35.737-20.632l0.09,19.083c0.025,4.696,3.842,8.59,8.533,8.59
			c0.008,0,0.025,0,0.042,0c4.708,0,8.517-3.956,8.492-8.669l0.361-28.783l42.762-24.452v57.753l-31.213,23.037
			c-3.775,2.825-4.787,8.175-1.954,11.946c2.817,3.763,8.538,4.538,12.313,1.704l20.854-15.359v38.405l-65.346,48.637
			c-3.775,2.825-4.787,8.175-1.954,11.946c2.825,3.763,8.546,4.533,12.313,1.704l54.987-40.959v46.938l-31.213,23.037
			c-3.775,2.825-4.787,8.175-1.954,11.946c2.817,3.763,8.538,4.533,12.313,1.704l20.854-15.359v25.601
			c0,4.713,3.817,8.533,8.533,8.533c4.717,0,8.533-3.821,8.533-8.533v-25.601l19.987,15.359c1.533,1.154,3.079,1.708,4.862,1.708
			c2.6,0,5.033-1.179,6.708-3.412c2.833-3.771,2.5-9.121-1.275-11.946l-30.283-23.037v-46.938l54.121,40.959
			c1.533,1.154,3.079,1.708,4.862,1.708c2.6,0,5.033-1.179,6.708-3.412c2.833-3.771,2.5-9.121-1.275-11.946l-64.417-48.637v-38.405
			l19.987,15.359c1.533,1.154,3.079,1.708,4.862,1.708c2.6,0,5.033-1.179,6.708-3.412c2.833-3.771,2.5-9.121-1.275-11.946
			l-30.283-23.037v-57.758l50.846,29.643l-0.388,32.131c-0.017,4.713,3.536,8.669,8.244,8.669c0.017,0,0.033,0,0.042,0
			c4.692,0,8.508-3.894,8.533-8.595l0.1-22.327l34.05,19.634l10.167,84.353c0.525,4.333,4.208,7.506,8.467,7.506
			c0.342,0,0.683-0.024,1.025-0.066c4.683-0.563,8.017-4.815,7.458-9.494l-8.633-71.652l39.961,23.07l4.598,38.127
			c0.525,4.333,4.208,7.513,8.467,7.513c0.342,0,0.683-0.021,1.033-0.063c4.675-0.563,8.008-4.812,7.45-9.492l-3.065-25.414
			l22.173,12.801c1.342,0.775,2.808,1.142,4.258,1.142c2.95,0,5.817-1.529,7.4-4.267C480.067,379.917,478.667,374.7,474.583,372.342
			z"/>
	</g>
</g>
</svg>